Coordinates
version=1
nRows=43
nColumns=12
inDegrees=yes

Units are S.I. units (second, meters, Newtons, ...)
Angles are in degrees

endheader
time	SC_y	SC_z	SC_x	AC_y	AC_z	AC_x	GH_y	GH_z	GH_yy	EL_x	PS_y
       0.0              -28.35          17.82          18.41           36.3          5.796          9.838         -131.5          10.15          57.42           97.1          28.53
   0.04142              -28.35          17.82          18.41           36.3          5.796          9.836         -131.4          10.15           57.4          97.09          28.54
   0.08283              -28.35          17.82          18.41           36.3          5.796          9.834         -131.4          10.15          57.39          97.08          28.56
    0.1242              -28.35          17.82          18.41          36.31          5.796          9.831         -131.3          10.16          57.38          97.07          28.58
    0.1657              -28.35          17.82          18.41          36.31          5.796          9.829         -131.3          10.16          57.36          97.06           28.6
    0.2071              -28.35          17.82          18.42          36.31          5.796          9.827         -131.2          10.16          57.35          97.05          28.62
    0.2485              -28.36          17.82          18.42          36.32          5.796          9.824         -131.2          10.17          57.33          97.04          28.65
    0.2899              -28.36          17.82          18.42          36.32          5.796          9.821         -131.1          10.17          57.31          97.03          28.67
    0.3313              -28.36          17.82          18.42          36.32          5.796          9.818         -131.0          10.17          57.29          97.01           28.7
    0.3727              -28.36          17.82          18.42          36.33          5.796          9.815         -131.0          10.18          57.27           97.0          28.73
    0.4142              -28.37          17.82          18.42          36.33          5.796          9.811         -130.9          10.18          57.25          96.98          28.76
    0.4556              -28.37          17.82          18.43          36.34          5.795          9.807         -130.8          10.19          57.23          96.96          28.79
     0.497              -28.37          17.83          18.43          36.34          5.795          9.803         -130.7          10.19           57.2          96.95          28.83
    0.5384              -28.37          17.83          18.43          36.35          5.795          9.799         -130.6           10.2          57.17          96.93          28.87
    0.5798              -28.38          17.83          18.43          36.36          5.795          9.794         -130.5           10.2          57.14           96.9          28.91
    0.6212              -28.38          17.83          18.44          36.36          5.795          9.789         -130.4          10.21          57.11          96.88          28.95
    0.6626              -28.39          17.83          18.44          36.37          5.795          9.783         -130.3          10.22          57.08          96.85           29.0
    0.7041              -28.39          17.83          18.45          36.38          5.794          9.777         -130.1          10.23          57.04          96.83          29.05
    0.7455              -28.39          17.84          18.45          36.39          5.794           9.77         -130.0          10.24           57.0           96.8          29.11
    0.7869               -28.4          17.84          18.45           36.4          5.794          9.762         -129.8          10.25          56.95          96.76          29.18
    0.8283               -28.4          17.84          18.46          36.41          5.794          9.754         -129.6          10.26           56.9          96.73          29.25
    0.8697              -28.41          17.84          18.46          36.42          5.793          9.745         -129.4          10.27          56.85          96.69          29.32
    0.9111              -28.42          17.84          18.47          36.44          5.793          9.736         -129.2          10.28          56.78          96.64          29.41
    0.9526              -28.43          17.85          18.48          36.45          5.793          9.725         -129.0           10.3          56.72          96.59           29.5
     0.994              -28.43          17.85          18.48          36.47          5.792          9.712         -128.7          10.31          56.64          96.54          29.61
     1.035              -28.44          17.86          18.49          36.48          5.792          9.699         -128.4          10.33          56.56          96.48          29.73
     1.077              -28.45          17.86           18.5          36.51          5.791          9.684         -128.0          10.35          56.46          96.41          29.86
     1.118              -28.47          17.86          18.51          36.53          5.791          9.666         -127.7          10.37          56.36          96.33          30.01
      1.16              -28.48          17.87          18.52          36.55           5.79          9.647         -127.2           10.4          56.24          96.24          30.17
     1.201              -28.49          17.88          18.54          36.58           5.79          9.625         -126.7          10.43           56.1          96.14          30.36
     1.242              -28.51          17.88          18.55          36.62          5.789            9.6         -126.2          10.46          55.95          96.03          30.58
     1.284              -28.53          17.89          18.57          36.66          5.788          9.571         -125.5           10.5          55.77           95.9          30.83
     1.325              -28.56           17.9          18.59           36.7          5.787          9.538         -124.8          10.54          55.57          95.75          31.11
     1.367              -28.58          17.91          18.61          36.75          5.785          9.499         -123.9          10.59          55.33          95.57          31.45
     1.408              -28.61          17.92          18.64          36.82          5.784          9.454         -122.9          10.65          55.05          95.37          31.84
      1.45              -28.65          17.94          18.67          36.89          5.782          9.401         -121.7          10.72          54.72          95.13           32.3
     1.491              -28.69          17.96          18.71          36.97           5.78          9.338         -120.3           10.8          54.33          94.84          32.84
     1.532              -28.75          17.98          18.76          37.07          5.778          9.262         -118.6           10.9          53.86           94.5           33.5
     1.574              -28.81           18.0          18.81           37.2          5.775           9.17         -116.6          11.02          53.29          94.09          34.29
     1.615              -28.89          18.04          18.88          37.35          5.771          9.058         -114.1          11.17           52.6          93.58          35.25
     1.657              -28.99          18.08          18.97          37.54          5.766           8.92         -111.0          11.35          51.75          92.96          36.45
     1.698              -29.11          18.12          19.07          37.77          5.761          8.747         -107.2          11.58          50.68          92.18          37.94
     1.739              -29.26          18.19           19.2          38.06          5.754           8.53         -102.3          11.86          49.34           91.2          39.81
